<svg width="120" height="108" viewBox="0 0 120 108" fill="none" xmlns="http://www.w3.org/2000/svg">
<path d="M120 54.3805C120 46.431 110.045 38.8974 94.7819 34.2256C98.3041 18.6691 96.7387 6.29244 89.841 2.32994C88.2511 1.40047 86.3922 0.960189 84.362 0.960189V6.41474C85.4872 6.41474 86.3922 6.63487 87.1504 7.05069C90.477 8.95856 91.9201 16.2231 90.795 25.5668C90.5259 27.866 90.0856 30.2875 89.5475 32.758C84.7534 31.5839 79.519 30.6789 74.0155 30.0919C70.7134 25.5668 67.289 21.4575 63.8402 17.8619C71.8141 10.4506 79.2988 6.39028 84.3865 6.39028V0.93573C77.66 0.93573 68.8545 5.72986 59.9511 14.0462C51.0477 5.77878 42.2422 1.03357 35.5157 1.03357V6.48811C40.5789 6.48811 48.0881 10.524 56.062 17.8864C52.6376 21.482 49.2132 25.5668 45.9601 30.0919C40.4321 30.6789 35.1977 31.5839 30.4036 32.7824C29.841 30.3365 29.4252 27.9639 29.1317 25.6891C27.9821 16.3454 29.4007 9.08086 32.7028 7.14853C33.4366 6.70825 34.3905 6.51258 35.5157 6.51258V1.05803C33.4611 1.05803 31.6021 1.49831 29.9878 2.42778C23.1146 6.39028 21.5736 18.7425 25.1203 34.25C9.90624 38.9463 0 46.4555 0 54.3805C0 62.3299 9.95515 69.8636 25.2181 74.5354C21.6959 90.0919 23.2613 102.469 30.159 106.431C31.7489 107.361 33.6078 107.801 35.6625 107.801C42.3889 107.801 51.1945 103.007 60.0978 94.6903C69.0012 102.958 77.8068 107.703 84.5332 107.703C86.5878 107.703 88.4468 107.263 90.0612 106.333C96.9344 102.371 98.4753 90.0185 94.9287 74.5109C110.094 69.8391 120 62.3055 120 54.3805V54.3805ZM88.1533 38.0658C87.2483 41.2211 86.1231 44.4743 84.8512 47.7274C83.8483 45.7706 82.7966 43.8138 81.647 41.8571C80.5218 39.9003 79.3233 37.9924 78.1248 36.1334C81.5981 36.6471 84.949 37.2831 88.1533 38.0658ZM76.9507 64.1155C75.0428 67.4176 73.086 70.5484 71.0559 73.4592C67.4113 73.7771 63.7179 73.9484 60 73.9484C56.3066 73.9484 52.6131 73.7771 48.9931 73.4836C46.9629 70.5729 44.9817 67.4665 43.0738 64.1889C41.2148 60.9847 39.5271 57.7315 37.9861 54.4539C39.5027 51.1762 41.2148 47.8986 43.0493 44.6944C44.9572 41.3923 46.914 38.2615 48.9442 35.3507C52.5887 35.0328 56.2821 34.8615 60 34.8615C63.6934 34.8615 67.3869 35.0328 71.0069 35.3263C73.0371 38.237 75.0183 41.3434 76.9262 44.621C78.7852 47.8253 80.4729 51.0784 82.0139 54.356C80.4729 57.6336 78.7852 60.9113 76.9507 64.1155ZM84.8512 60.9357C86.172 64.2133 87.2972 67.491 88.2267 70.6707C85.0224 71.4535 81.647 72.1139 78.1492 72.6275C79.3477 70.7441 80.5463 68.8118 81.6714 66.8306C82.7966 64.8738 83.8483 62.8925 84.8512 60.9357ZM60.0489 87.0344C57.7742 84.6862 55.4994 82.069 53.2491 79.2072C55.4505 79.3051 57.7008 79.3785 59.9755 79.3785C62.2748 79.3785 64.5495 79.3295 66.7754 79.2072C64.574 82.069 62.2992 84.6862 60.0489 87.0344ZM41.8508 72.6275C38.3775 72.1139 35.0265 71.4779 31.8223 70.6952C32.7273 67.5399 33.8524 64.2867 35.1243 61.0336C36.1272 62.9904 37.179 64.9471 38.3286 66.9039C39.4782 68.8607 40.6523 70.7686 41.8508 72.6275ZM59.9266 21.7266C62.2014 24.0747 64.4762 26.6919 66.7265 29.5537C64.5251 29.4559 62.2748 29.3825 60 29.3825C57.7008 29.3825 55.426 29.4314 53.2002 29.5537C55.4016 26.6919 57.6763 24.0747 59.9266 21.7266ZM41.8263 36.1334C40.6278 38.0169 39.4293 39.9492 38.3041 41.9304C37.179 43.8872 36.1272 45.844 35.1243 47.8008C33.8035 44.5232 32.6784 41.2456 31.7489 38.0658C34.9531 37.3075 38.3286 36.6471 41.8263 36.1334V36.1334ZM19.6902 66.7572C11.0314 63.0637 5.43009 58.2207 5.43009 54.3805C5.43009 50.5403 11.0314 45.6728 19.6902 42.0038C21.7937 41.0988 24.0929 40.2916 26.4656 39.5334C27.8598 44.3275 29.6943 49.3173 31.969 54.4294C29.7187 59.5171 27.9087 64.4824 26.5389 69.2521C24.1174 68.4938 21.8182 67.6622 19.6902 66.7572ZM32.8496 101.71C29.523 99.8024 28.0799 92.5378 29.2051 83.1942C29.4741 80.895 29.9144 78.4734 30.4525 76.003C35.2466 77.1771 40.481 78.0821 45.9845 78.6691C49.2866 83.1942 52.711 87.3034 56.1598 90.899C48.1859 98.3104 40.7012 102.371 35.6135 102.371C34.5128 102.346 33.5834 102.126 32.8496 101.71V101.71ZM90.8683 83.0719C92.0179 92.4155 90.5993 99.6801 87.2972 101.612C86.5634 102.053 85.6095 102.248 84.4843 102.248C79.4211 102.248 71.912 98.2125 63.938 90.8501C67.3624 87.2545 70.7868 83.1697 74.04 78.6447C79.5679 78.0576 84.8023 77.1526 89.5964 75.9541C90.159 78.4245 90.5993 80.7971 90.8683 83.0719V83.0719ZM100.285 66.7572C98.1818 67.6622 95.8826 68.4694 93.51 69.2276C92.1158 64.4335 90.2813 59.4437 88.0065 54.3316C90.2568 49.2439 92.0669 44.2786 93.4366 39.5089C95.8581 40.2672 98.1574 41.0988 100.31 42.0038C108.969 45.6972 114.57 50.5403 114.57 54.3805C114.545 58.2207 108.944 63.0882 100.285 66.7572V66.7572Z" fill="#81D8F7"/>
<path d="M59.9755 65.5586C66.1491 65.5586 71.1537 60.554 71.1537 54.3805C71.1537 48.207 66.1491 43.2023 59.9755 43.2023C53.802 43.2023 48.7974 48.207 48.7974 54.3805C48.7974 60.554 53.802 65.5586 59.9755 65.5586Z" fill="#81D8F7"/>
</svg>
